<svg id="Calque_1" data-name="Calque 1" xmlns="http://www.w3.org/2000/svg" xmlns:xlink="http://www.w3.org/1999/xlink" width="347.52" height="35.17" viewBox="0 0 347.52 35.17"><defs><style>.cls-1{fill:url(#linear-gradient);}.cls-2{fill:url(#linear-gradient-2);}.cls-3{fill:#cb0000;isolation:isolate;opacity:0.44;}.cls-4{fill:#fff;}.cls-5{fill:none;stroke:#fff;stroke-miterlimit:10;}.cls-6{fill:#ec1c24;}</style><linearGradient id="linear-gradient" x1="1.4" y1="657.51" x2="13.43" y2="637.41" gradientTransform="translate(287.7 -616.54)" gradientUnits="userSpaceOnUse"><stop offset="0" stop-color="#cb0000"/><stop offset="0.22" stop-color="#c60000"/><stop offset="0.49" stop-color="#b60000"/><stop offset="0.77" stop-color="#9e0000"/><stop offset="1" stop-color="#720000"/></linearGradient><linearGradient id="linear-gradient-2" x1="34.17" y1="636.14" x2="25.55" y2="658.3" xlink:href="#linear-gradient"/></defs><path class="cls-1" d="M295,45.3a14.11,14.11,0,1,1,14.1-14.1A14.11,14.11,0,0,1,295,45.3Zm0-22.4a8.3,8.3,0,1,0,8.3,8.3A8.31,8.31,0,0,0,295,22.9Z" transform="translate(-6.97 -10.13)"/><path class="cls-2" d="M317.36,45.3a14.11,14.11,0,1,1,14.1-14.1A14.12,14.12,0,0,1,317.36,45.3Zm0-22.18a8.08,8.08,0,1,0,8.08,8.08A8.09,8.09,0,0,0,317.36,23.12Z" transform="translate(-6.97 -10.13)"/><path class="cls-3" d="M317.31,17.09Z" transform="translate(-6.97 -10.13)"/><path class="cls-3" d="M317.34,45.3h0Z" transform="translate(-6.97 -10.13)"/><path class="cls-3" d="M308.79,33.94c.33-2,.86-3.42,1-4.08a7.84,7.84,0,0,1,8-6.73v-6A14.36,14.36,0,0,0,305.6,24s-2.13,3.29-2.15,6.18a12.64,12.64,0,0,1,0,2.1c-.72,4.9-4.69,7.79-9.69,7.07v5.84a13.36,13.36,0,0,0,12.6-5.54A14,14,0,0,0,308.79,33.94Z" transform="translate(-6.97 -10.13)"/><path class="cls-4" d="M229.79,31c0-8,5.73-13.9,13.62-13.9,4.87,0,7.82,1.84,9.55,3.88a3,3,0,0,1,.78,1.89A2.73,2.73,0,0,1,251,25.61a3.2,3.2,0,0,1-1.73-.59c-1.76-1.18-2.94-2.44-5.92-2.44-4.09,0-7.31,3.54-7.31,8.44s3.3,8.44,7.46,8.44c3,0,4.28-1.33,5.93-2.43a3.17,3.17,0,0,1,1.73-.59,2.7,2.7,0,0,1,2.71,2.75,2.94,2.94,0,0,1-.75,1.88c-1.69,2.09-4.67,3.89-9.77,3.89C235.48,45,229.79,39.07,229.79,31Z" transform="translate(-6.97 -10.13)"/><path class="cls-4" d="M278.51,20.23v23a1.23,1.23,0,0,1-1.29,1.34h-3.69a1.24,1.24,0,0,1-1.34-1.34v-9H262v9a1.23,1.23,0,0,1-1.3,1.34H257a1.24,1.24,0,0,1-1.34-1.34v-23a3.15,3.15,0,0,1,3.15-3.14A3.19,3.19,0,0,1,262,20.23v8.32H272.2V20.23a3.15,3.15,0,0,1,3.14-3.14A3.18,3.18,0,0,1,278.51,20.23Z" transform="translate(-6.97 -10.13)"/><path class="cls-4" d="M341.14,23.37v5.3h8.44a3,3,0,1,1,0,5.89h-8.44v8.67a1.23,1.23,0,0,1-1.3,1.34h-3.69a1.24,1.24,0,0,1-1.33-1.34V20.54a2.89,2.89,0,0,1,3.1-3.06h13.43a3,3,0,1,1,0,5.89Z" transform="translate(-6.97 -10.13)"/><line class="cls-5" x1="199.82" y1="7.34" x2="199.82" y2="35.17"/><path class="cls-6" d="M164.3,19.34a12.83,12.83,0,0,0-12.77,11.79,12.8,12.8,0,0,0-25.55.6l0-16.33V11.68a1.55,1.55,0,0,0-1.55-1.55h-2.52a1.56,1.56,0,0,0-1.55,1.55v-.29s0,.92,0,.92l0,9.24-.51-.32a12.79,12.79,0,0,0-19.24,8.36,12.74,12.74,0,0,0-21.25-6.78,11.92,11.92,0,0,0-9.67-3.49,11.08,11.08,0,0,0-6.05,2.62V21a1.32,1.32,0,0,0-1.32-1.33H59.5A1.36,1.36,0,0,0,58.14,21V36.33h0v7.23a1.33,1.33,0,0,0,1.32,1.33H62.3a1.36,1.36,0,0,0,1.36-1.36l.12-11.71a6.88,6.88,0,0,1,6.33-7,7.23,7.23,0,0,1,6.16,2.39,12.46,12.46,0,0,0-1,4.83A12.77,12.77,0,0,0,86.63,44.87l.41,0,.3,0c.37,0,.75,0,1.17,0H89a13.35,13.35,0,0,0,8.28-2.79l.12-.08.91-.82a1,1,0,0,0-.2-1.54l-3.44-1.9a1,1,0,0,0-1.21.09l-.57.37a8.14,8.14,0,0,1-3.91,1.1h-.32a10.24,10.24,0,0,1-1.92-.18,7.17,7.17,0,0,1-5-3.72l-.38-.93h19.3A12.79,12.79,0,0,0,126,32.35a12.8,12.8,0,0,0,25.56.81A12.81,12.81,0,1,0,164.3,19.34ZM81.36,29.52l0-.08a7.18,7.18,0,0,1,13.32,0l0,.08Zm31.82,9.84A7.22,7.22,0,0,1,106,32a7.29,7.29,0,0,1,7.09-7.1,7.21,7.21,0,1,1,.11,14.42Zm25.6,0a7.21,7.21,0,1,1,7.2-7.21A7.22,7.22,0,0,1,138.78,39.36Zm25.52,0a7.21,7.21,0,1,1,7.2-7.21A7.22,7.22,0,0,1,164.3,39.36Z" transform="translate(-6.97 -10.13)"/><path class="cls-6" d="M45.33,19.34a12.82,12.82,0,0,0-12.78,12,12.82,12.82,0,1,0,0,1.59,12.8,12.8,0,1,0,12.78-13.6m-25.54,20A7.21,7.21,0,1,1,27,32.15a7.22,7.22,0,0,1-7.21,7.21m25.54,0a7.21,7.21,0,1,1,7.2-7.21,7.23,7.23,0,0,1-7.2,7.21" transform="translate(-6.97 -10.13)"/><path class="cls-6" d="M126,11.42v0" transform="translate(-6.97 -10.13)"/><path class="cls-6" d="M181,12.89a4.65,4.65,0,1,0,4.65,4.65A4.65,4.65,0,0,0,181,12.89" transform="translate(-6.97 -10.13)"/></svg>