<?xml version="1.0" encoding="utf-8"?>
<!-- Generator: Adobe Illustrator 16.0.0, SVG Export Plug-In . SVG Version: 6.00 Build 0)  -->
<!DOCTYPE svg PUBLIC "-//W3C//DTD SVG 1.1//EN" "http://www.w3.org/Graphics/SVG/1.1/DTD/svg11.dtd">
<svg version="1.1" id="Calque_1" xmlns="http://www.w3.org/2000/svg" xmlns:xlink="http://www.w3.org/1999/xlink" x="0px" y="0px"
	 width="96.5px" height="40px" viewBox="0 0 96.5 40" enable-background="new 0 0 96.5 40" xml:space="preserve">
<g id="Messenger_4_">
	
		<linearGradient id="Bubble_Solid_1_" gradientUnits="userSpaceOnUse" x1="11610.8906" y1="-8969.7979" x2="11610.8906" y2="-9958.8271" gradientTransform="matrix(0.0313 0 0 -0.0313 -289.853 -275.4438)">
		<stop  offset="0" style="stop-color:#00B2FF"/>
		<stop  offset="1" style="stop-color:#006AFF"/>
	</linearGradient>
	<path id="Bubble_Solid_3_" fill="url(#Bubble_Solid_1_)" d="M72.987,4.862c-8.706,0-15.454,6.378-15.454,14.992
		c0,4.503,1.847,8.398,4.854,11.087c0.253,0.227,0.404,0.54,0.417,0.882l0.083,2.749c0.028,0.875,0.933,1.444,1.734,1.09
		l3.067-1.351c0.261-0.112,0.55-0.138,0.823-0.062c1.409,0.389,2.911,0.596,4.474,0.596c8.707,0,15.454-6.379,15.454-14.991
		C88.441,11.241,81.694,4.862,72.987,4.862z"/>
	<path id="Bolt_4_" fill="#FFFFFF" d="M63.709,24.236l4.541-7.2c0.721-1.143,2.269-1.431,3.352-0.62l3.608,2.71
		c0.333,0.25,0.788,0.247,1.117-0.003l4.875-3.701c0.648-0.493,1.503,0.287,1.064,0.977l-4.537,7.199
		c-0.721,1.146-2.271,1.429-3.354,0.617l-3.609-2.706c-0.332-0.248-0.787-0.245-1.116,0.002l-4.879,3.703
		C64.123,25.708,63.271,24.928,63.709,24.236z"/>
</g>
<g>
	<path fill="#4267B2" d="M53.88,22.162c0,0.721-0.563,1.283-1.283,1.283h-2.524v2.845c0,0.72-0.602,1.361-1.363,1.361
		c-0.762,0-1.363-0.642-1.363-1.361v-2.845h-2.584c-0.722,0-1.282-0.563-1.282-1.283c0-0.7,0.561-1.281,1.282-1.281h2.584v-2.846
		c0-0.762,0.601-1.363,1.363-1.363c0.761,0,1.363,0.601,1.363,1.363v2.846h2.524C53.318,20.881,53.88,21.462,53.88,22.162z"/>
</g>
<g>
	<path fill="#4267B2" d="M116.113,22.162c0,0.721-0.563,1.283-1.282,1.283h-2.525v2.845c0,0.72-0.601,1.361-1.36,1.361
		c-0.762,0-1.362-0.642-1.362-1.361v-2.845h-2.586c-0.721,0-1.282-0.563-1.282-1.283c0-0.7,0.562-1.281,1.282-1.281h2.586v-2.846
		c0-0.762,0.601-1.363,1.362-1.363c0.76,0,1.36,0.601,1.36,1.363v2.846h2.525C115.551,20.881,116.113,21.462,116.113,22.162z"/>
</g>
<g>
	<g>
		<defs>
			<path id="SVGID_1_" d="M138.19,36.126L138.19,36.126 M138.19,36.126L138.19,36.126L138.19,36.126 M121.831,19.759
				c0,2.882,0.755,5.696,2.188,8.176l-2.323,8.474l8.672-2.273c2.389,1.301,5.08,1.987,7.816,1.99h0.007
				c9.016,0,16.353-7.336,16.356-16.354c0.004-4.369-1.697-8.478-4.784-11.568c-3.09-3.09-7.196-4.795-11.572-4.795
				C129.175,3.409,121.836,10.744,121.831,19.759"/>
		</defs>
		<clipPath id="SVGID_2_">
			<use xlink:href="#SVGID_1_"  overflow="visible"/>
		</clipPath>
		
			<linearGradient id="SVGID_3_" gradientUnits="userSpaceOnUse" x1="-558.0337" y1="553.8613" x2="-557.9526" y2="553.8613" gradientTransform="matrix(0 -406.194 -406.194 0 225113.2813 -226633.4375)">
			<stop  offset="0" style="stop-color:#20B038"/>
			<stop  offset="1" style="stop-color:#60D66A"/>
		</linearGradient>
		<rect x="121.695" y="3.409" clip-path="url(#SVGID_2_)" fill="url(#SVGID_3_)" width="32.855" height="33"/>
	</g>
	<path fill="none" stroke="#FFFFFF" stroke-width="2.5885" stroke-miterlimit="10" d="M121.452,19.635
		c0,2.985,0.778,5.9,2.263,8.468l-2.404,8.777l8.983-2.355c2.477,1.352,5.26,2.062,8.095,2.063h0.008
		c9.341,0,16.938-7.598,16.946-16.937c0-4.528-1.762-8.785-4.96-11.986c-3.197-3.202-7.452-4.965-11.986-4.966
		C129.057,2.699,121.458,10.297,121.452,19.635"/>
	<g>
		<path fill-rule="evenodd" clip-rule="evenodd" fill="#FFFFFF" d="M133.957,12.673c-0.315-0.705-0.649-0.717-0.948-0.731
			c-0.253-0.01-0.533-0.01-0.816-0.01c-0.281,0-0.739,0.106-1.128,0.529c-0.388,0.425-1.481,1.449-1.481,3.531
			c0,2.083,1.518,4.095,1.729,4.378c0.214,0.284,2.932,4.696,7.234,6.389c3.574,1.415,4.303,1.133,5.078,1.06
			c0.776-0.07,2.508-1.023,2.858-2.009c0.354-0.991,0.354-1.838,0.245-2.016c-0.105-0.175-0.387-0.28-0.81-0.494
			c-0.424-0.213-2.504-1.234-2.894-1.377c-0.387-0.141-0.67-0.21-0.953,0.213c-0.282,0.425-1.095,1.378-1.34,1.658
			c-0.247,0.282-0.491,0.318-0.918,0.107c-0.425-0.213-1.785-0.659-3.403-2.1c-1.26-1.124-2.106-2.511-2.354-2.933
			c-0.247-0.424-0.027-0.653,0.182-0.864c0.191-0.19,0.427-0.495,0.639-0.741c0.212-0.249,0.282-0.426,0.423-0.707
			c0.141-0.282,0.068-0.529-0.034-0.742C135.158,15.605,134.335,13.511,133.957,12.673"/>
	</g>
</g>
<rect x="17.5" y="7.5" fill="#FFFFFF" width="17.167" height="27.244"/>
<path fill="#4267B2" d="M36.206,4.836H9.6c-0.911,0-1.65,0.739-1.65,1.65v26.606c0,0.912,0.739,1.651,1.65,1.651l0,0h14.335V23.179
	h-3.894V18.65h3.894v-3.331c0-3.862,2.362-5.967,5.805-5.967c1.161-0.001,2.321,0.057,3.476,0.176v4.038h-2.372
	c-1.876,0-2.243,0.887-2.243,2.197v2.882h4.486l-0.583,4.528h-3.929v11.571h7.63c0.912,0,1.651-0.739,1.651-1.651l0,0V6.486
	C37.857,5.575,37.118,4.836,36.206,4.836L36.206,4.836z"/>
</svg>
