<svg id="Layer_1" data-name="Layer 1" xmlns="http://www.w3.org/2000/svg" width="118.99" height="23.19" viewBox="0 0 118.99 23.19"><defs><style>.cls-1{fill:#ec1c24;}</style></defs><path class="cls-1" d="M107,15.16A8.54,8.54,0,0,0,98.51,23a8.52,8.52,0,0,0-17,.4V10.06a1,1,0,0,0-1-1H78.81a1,1,0,0,0-1,1v6.57l-.34-.21A8.51,8.51,0,0,0,64.61,22a8.48,8.48,0,0,0-14.15-4.52A7.91,7.91,0,0,0,44,15.15a7.33,7.33,0,0,0-4,1.74v-.62a.89.89,0,0,0-.89-.89H37.23a.9.9,0,0,0-.9.91V26.47h0v4.82a.89.89,0,0,0,.88.88h1.88a.91.91,0,0,0,.91-.9l.08-7.8a4.59,4.59,0,0,1,4.22-4.66,4.81,4.81,0,0,1,4.1,1.59,8.28,8.28,0,0,0-.68,3.21,8.52,8.52,0,0,0,7.58,8.55l.27,0h.2c.25,0,.5,0,.78,0h.29a8.87,8.87,0,0,0,5.51-1.86l.09-.05.6-.55a.63.63,0,0,0-.14-1l-2.29-1.27a.72.72,0,0,0-.8.06l-.38.25a5.32,5.32,0,0,1-2.6.73h-.21a6.7,6.7,0,0,1-1.28-.12A4.76,4.76,0,0,1,52,25.92l-.26-.63H64.6a8.52,8.52,0,0,0,16.89-1.48,8.52,8.52,0,0,0,17,.54,8.53,8.53,0,1,0,8.5-9.2ZM51.79,21.94l0-.06a4.79,4.79,0,0,1,8.88,0l0,.06ZM73,28.49a4.8,4.8,0,1,1,4.81-4.8A4.81,4.81,0,0,1,73,28.49Zm17,0a4.8,4.8,0,1,1,4.79-4.8A4.81,4.81,0,0,1,90,28.49Zm17,0a4.8,4.8,0,1,1,4.8-4.8A4.81,4.81,0,0,1,107,28.49Z" transform="translate(-2.26 -9.03)"/><path class="cls-1" d="M27.8,15.16a8.54,8.54,0,0,0-8.51,8,8.53,8.53,0,1,0,0,1.06,8.52,8.52,0,1,0,8.51-9.06m-17,13.33a4.8,4.8,0,1,1,4.8-4.8,4.81,4.81,0,0,1-4.8,4.8m17,0a4.8,4.8,0,1,1,4.79-4.8,4.81,4.81,0,0,1-4.79,4.8" transform="translate(-2.26 -9.03)"/><path class="cls-1" d="M81.52,9.89v0" transform="translate(-2.26 -9.03)"/><path class="cls-1" d="M118.15,10.86a3.1,3.1,0,1,0,3.09,3.1,3.1,3.1,0,0,0-3.09-3.1" transform="translate(-2.26 -9.03)"/></svg>