<?xml version="1.0" encoding="utf-8"?>
<!-- Generator: Adobe Illustrator 16.0.0, SVG Export Plug-In . SVG Version: 6.00 Build 0)  -->
<!DOCTYPE svg PUBLIC "-//W3C//DTD SVG 1.1//EN" "http://www.w3.org/Graphics/SVG/1.1/DTD/svg11.dtd">
<svg version="1.1" id="Layer_1" xmlns="http://www.w3.org/2000/svg" xmlns:xlink="http://www.w3.org/1999/xlink" x="0px" y="0px"
	 width="58px" height="40px" viewBox="58.5 41 58 40" enable-background="new 58.5 41 58 40" xml:space="preserve">
<title>f-ogo_RGB_HEX-58</title>
<path fill="#4267B2" d="M104.95,41.385h-34.9c-1.196,0-2.165,0.969-2.165,2.165v34.9c0,1.195,0.969,2.165,2.165,2.165l0,0h18.803
	V65.444h-5.106v-5.939h5.106v-4.369c0-5.066,3.099-7.826,7.616-7.826c1.522-0.003,3.045,0.074,4.559,0.23v5.296h-3.111
	c-2.462,0-2.942,1.164-2.942,2.881v3.781h5.885l-0.765,5.938H94.94v15.179h10.01c1.195,0,2.165-0.97,2.165-2.165l0,0v-34.9
	C107.115,42.354,106.146,41.385,104.95,41.385L104.95,41.385z"/>
</svg>
