<?xml version="1.0" encoding="utf-8"?>
<!-- Generator: Adobe Illustrator 25.4.0, SVG Export Plug-In . SVG Version: 6.00 Build 0)  -->
<svg version="1.1" id="Calque_1" xmlns="http://www.w3.org/2000/svg" xmlns:xlink="http://www.w3.org/1999/xlink" x="0px" y="0px"
	 viewBox="0 0 1417.3 199" style="enable-background:new 0 0 1417.3 199;" xml:space="preserve">
<style type="text/css">
	.st0{fill:#CBCBCA;}
	.st1{fill:url(#SVGID_1_);}
	.st2{fill:url(#SVGID_00000148647531280515563310000005732804536557739662_);}
	.st3{opacity:0.44;fill:#CB0000;enable-background:new    ;}
	.st4{fill:#171717;}
	.st5{fill:#EC1C24;}
</style>
<rect x="887.6" y="30.9" class="st0" width="6.2" height="139.7"/>
<g>
	<g>
		
			<linearGradient id="SVGID_1_" gradientUnits="userSpaceOnUse" x1="872.2811" y1="-33.7166" x2="918.6344" y2="-111.1478" gradientTransform="matrix(1 0 0 1 287.7002 172.3457)">
			<stop  offset="1.200000e-03" style="stop-color:#CB0000"/>
			<stop  offset="0.2173" style="stop-color:#C60000"/>
			<stop  offset="0.4912" style="stop-color:#B60000"/>
			<stop  offset="0.7746" style="stop-color:#9E0000"/>
			<stop  offset="0.9974" style="stop-color:#720000"/>
		</linearGradient>
		<path class="st1" d="M1182.5,155.3c-30,0-54.3-24.4-54.3-54.3c0-30,24.4-54.3,54.3-54.3c29.9,0,54.3,24.4,54.3,54.3
			C1236.8,130.9,1212.5,155.3,1182.5,155.3z M1182.5,69c-17.6,0-32,14.3-32,32c0,17.6,14.4,32,32,32c17.6,0,32-14.4,32-32
			C1214.5,83.4,1200.1,69,1182.5,69z"/>
	</g>
	
		<linearGradient id="SVGID_00000138564321253320193770000017729221189511605690_" gradientUnits="userSpaceOnUse" x1="998.5029" y1="-116.0404" x2="965.3162" y2="-30.703" gradientTransform="matrix(1 0 0 1 287.7002 172.3457)">
		<stop  offset="1.200000e-03" style="stop-color:#CB0000"/>
		<stop  offset="0.2173" style="stop-color:#C60000"/>
		<stop  offset="0.4912" style="stop-color:#B60000"/>
		<stop  offset="0.7746" style="stop-color:#9E0000"/>
		<stop  offset="0.9974" style="stop-color:#720000"/>
	</linearGradient>
	<path style="fill:url(#SVGID_00000138564321253320193770000017729221189511605690_);" d="M1268.8,155.3
		c-29.9,0-54.3-24.4-54.3-54.3c0-30,24.4-54.3,54.3-54.3c30,0,54.3,24.4,54.3,54.3C1323.2,130.9,1298.8,155.3,1268.8,155.3z
		 M1268.8,69.9c-17.2,0-31.1,14-31.1,31.1c0,17.2,14,31.1,31.1,31.1c17.2,0,31.1-14,31.1-31.1C1300,83.8,1286,69.9,1268.8,69.9z"/>
	<g>
		<path class="st3" d="M1268.7,46.7L1268.7,46.7C1268.7,46.7,1268.7,46.7,1268.7,46.7L1268.7,46.7z"/>
		<path class="st3" d="M1268.7,155.3C1268.7,155.3,1268.7,155.3,1268.7,155.3L1268.7,155.3L1268.7,155.3z"/>
		<path class="st3" d="M1235.8,111.6c1.3-7.6,3.3-13.2,3.8-15.7c3.1-16.5,15.5-25.9,30.9-25.9V46.7c-19.3,0-37.5,10.7-47,26.7
			c0,0-8.2,12.7-8.3,23.8c-0.1,1.4,0.7,5.4,0.1,8.1c-2.8,18.9-18.1,30-37.3,27.2V155c23.1,2.1,38.3-7.8,48.5-21.3
			C1226.6,133.7,1233.7,124.5,1235.8,111.6z"/>
	</g>
	<g>
		<path class="st4" d="M931.5,100.2c0-31,22.1-53.5,52.5-53.5c18.8,0,30.1,7.1,36.7,15c2,2.4,3,4.8,3,7.3c0,6.2-5,10.6-10.6,10.6
			c-2.6,0-4.8-1.1-6.6-2.3c-6.8-4.5-11.3-9.4-22.8-9.4c-15.7,0-28.1,13.6-28.1,32.5c0,18.9,12.7,32.5,28.7,32.5
			c11.6,0,16.5-5.1,22.8-9.4c1.8-1.2,4.1-2.3,6.7-2.3c5.6,0,10.4,4.4,10.4,10.6c0,2.4-0.9,4.8-2.9,7.2c-6.5,8-18,15-37.7,15
			C953.5,154,931.5,131.3,931.5,100.2z"/>
		<path class="st4" d="M1119.2,58.7v88.6c0,3.2-2,5.1-5,5.1H1100c-3.2,0-5.1-2-5.1-5.1v-34.6h-39.5v34.6c0,3.2-2,5.1-5,5.1h-14.2
			c-3.2,0-5.1-2-5.1-5.1V58.7c0-6.7,5.4-12.1,12.1-12.1c6.7,0,12.2,5.4,12.2,12.1v32.1h39.5V58.7c0-6.7,5.4-12.1,12.1-12.1
			C1113.6,46.6,1119.2,52.1,1119.2,58.7z"/>
		<path class="st4" d="M1360.4,70.8v20.4h32.5c6.7,0,12.1,4.7,12.1,11.3s-5.4,11.3-12.1,11.3h-32.5v33.4c0,3.2-2,5.1-5,5.1h-14.2
			c-3.2,0-5.1-2-5.1-5.1V59.9c0-7.9,5.4-11.8,11.9-11.8h0.1h51.6c6.7,0,12.1,4.7,12.1,11.3c0,6.7-5.4,11.3-12.1,11.3L1360.4,70.8
			L1360.4,70.8L1360.4,70.8z"/>
	</g>
</g>
<g>
	<path class="st5" d="M749.2,60.8c-31.6,0-57.6,24.5-60.1,55.5c-2.5-31-28.4-55.5-60.1-55.5c-32.6,0-59.2,26-60.2,58.4l0.1-76.9
		c0,0,0-4.4,0-4.5V34l0-6.5c0,0,0-2.8,0-3.9v1.2c0-4-3.3-7.3-7.3-7.3h-11.9c-4,0-7.3,3.3-7.3,7.3v-1.4c0,0-0.1,4.3,0,4.3l-0.1,43.5
		l-2.4-1.5c-17-10.5-38.7-12.1-58-2.8c-16.9,8.1-28.8,24-32.5,42.2c-5.7-28.3-31.3-49.4-61.5-48.3c-14.8,0.6-28.3,6.7-38.6,16.4
		c-11.5-11.6-27.5-18-45.5-16.4c-10.5,0.9-20.2,5.5-28.5,12.3v-4.4c0-3.4-2.8-6.3-6.2-6.3h-13.3c-3.5,0-6.4,2.9-6.4,6.4v72h0v34
		c0,3.4,2.8,6.2,6.3,6.2h13.3c3.5,0,6.4-2.9,6.4-6.4l0.6-55.1c0-18,12.8-31.2,29.8-32.9c11.3-1.2,21.9,3.3,29,11.3
		c-3,7-4.7,14.7-4.8,22.7c-0.3,31,22.9,57,53.6,60.4l1.9,0.2l1.4,0.1c1.7,0.1,3.5,0.2,5.5,0.2c0.7,0,1.4,0,2.1-0.1
		c15.7-0.4,28.7-4.9,39-13.1c0.2-0.1,0.4-0.2,0.6-0.4l4.3-3.9c2.3-2,1.8-5.8-1-7.3l-16.2-8.9c-1.8-1-3.6-1-5.7,0.4l-2.7,1.7
		c-5.2,3.1-11.6,5-18.4,5.2l-1.5,0c-3.1,0-6.1-0.3-9-0.8c-10.1-1.9-18.7-8.3-23.5-17.5l-1.8-4.4l90.9,0
		c5.4,27.8,29.8,48.9,59.2,48.9c32.9,0,59.7-26.5,60.2-59.4c0.5,32.8,27.3,59.4,60.3,59.4c31.6,0,57.6-24.5,60.1-55.5
		c2.5,31,28.4,55.5,60.1,55.5c33.2,0,60.3-27.1,60.3-60.3C809.5,87.9,782.5,60.8,749.2,60.8z M358.8,108.8l0.2-0.4
		c5.2-12.9,17.5-21.2,31.4-21.2c13.9,0,26.2,8.3,31.3,21.3l0.2,0.4L358.8,108.8z M508.6,155.1c-18.9,0-34.2-15.5-33.9-34.5
		c0.3-18,15.4-33.2,33.4-33.4c18.9-0.3,34.4,15.1,34.4,33.9C542.5,139.9,527.3,155.1,508.6,155.1z M629.1,155.1
		c-18.7,0-33.9-15.2-33.9-33.9c0-18.7,15.2-33.9,33.9-33.9c18.7,0,33.9,15.2,33.9,33.9C663,139.9,647.8,155.1,629.1,155.1z
		 M749.2,155.1c-18.7,0-33.9-15.2-33.9-33.9c0-18.7,15.2-33.9,33.9-33.9c18.7,0,33.9,15.2,33.9,33.9
		C783.1,139.9,767.9,155.1,749.2,155.1z"/>
	<path class="st5" d="M189.2,60.8c-32,0-58.2,25-60.2,56.6c-2-31.5-28.1-56.6-60.1-56.6c-33.3,0-60.3,27-60.3,60.3
		c0,33.3,27.1,60.3,60.3,60.3c32,0,58.1-25.1,60.1-56.5c2,31.5,28.1,56.5,60.2,56.5c33.2,0,60.3-27.1,60.3-60.3
		C249.5,87.9,222.4,60.8,189.2,60.8 M68.9,155.1c-18.7,0-33.9-15.2-33.9-33.9c0-18.7,15.2-33.9,33.9-33.9
		c18.7,0,33.9,15.2,33.9,33.9C102.9,139.9,87.6,155.1,68.9,155.1 M189.2,155.1c-18.7,0-33.9-15.2-33.9-33.9
		c0-18.7,15.2-33.9,33.9-33.9c18.7,0,33.9,15.2,33.9,33.9C223.1,139.9,207.9,155.1,189.2,155.1"/>
	<path class="st5" d="M569,23.6v-0.4C569,23.1,569,23.3,569,23.6"/>
	<path class="st5" d="M827.9,30.5c-12.1,0-21.9,9.8-21.9,21.9c0,12.1,9.8,21.9,21.9,21.9c12.1,0,21.9-9.8,21.9-21.9
		C849.8,40.3,840,30.5,827.9,30.5"/>
</g>
</svg>
