<?xml version="1.0" encoding="utf-8"?>
<!-- Generator: Adobe Illustrator 16.0.0, SVG Export Plug-In . SVG Version: 6.00 Build 0)  -->
<!DOCTYPE svg PUBLIC "-//W3C//DTD SVG 1.1//EN" "http://www.w3.org/Graphics/SVG/1.1/DTD/svg11.dtd">
<svg version="1.1" id="Calque_1" xmlns="http://www.w3.org/2000/svg" xmlns:xlink="http://www.w3.org/1999/xlink" x="0px" y="0px"
	 width="172px" height="45px" viewBox="0 0 172 45" enable-background="new 0 0 172 45" xml:space="preserve">
<g>
	<path fill-rule="evenodd" clip-rule="evenodd" fill="#FE0000" d="M34.675,38.845c-3.317-0.028-8.149-0.104-12.974-0.468
		c-1.146-0.086-2.299-0.179-3.417-0.457c-2.366-0.59-3.901-2.073-4.458-4.457c-1.043-4.449-1.054-8.975-0.873-13.506
		c0.109-2.74,0.362-5.472,0.828-8.178c0.418-2.426,2.21-4.236,4.662-4.706c2.4-0.459,4.837-0.562,7.269-0.671
		c6.02-0.27,12.043-0.334,18.066-0.125c3.258,0.112,6.519,0.197,9.752,0.68c2.625,0.392,4.517,2.145,5.094,4.711
		c0.779,3.466,0.95,6.983,0.933,10.519c-0.02,3.727-0.29,7.433-0.924,11.108c-0.402,2.329-2.178,4.152-4.53,4.639
		c-2.243,0.463-4.528,0.558-6.806,0.661C43.598,38.764,39.897,38.858,34.675,38.845z"/>
	<path fill-rule="evenodd" clip-rule="evenodd" fill="#282828" d="M125.266,33.916c-0.272,0.404-0.451,0.696-0.655,0.969
		c-1.236,1.646-2.9,2.195-4.875,1.802c-1.555-0.31-2.462-1.472-2.75-3.351c-0.113-0.742-0.139-1.488-0.139-2.236
		c-0.002-4.833,0.005-9.666-0.012-14.5c-0.002-0.447,0.105-0.578,0.561-0.564c1.188,0.033,2.379,0.029,3.567,0.001
		c0.409-0.01,0.505,0.114,0.504,0.513c-0.015,4.737-0.011,9.475-0.009,14.212c0,0.612-0.016,1.228,0.142,1.829
		c0.201,0.763,0.753,1.095,1.524,0.915c1.016-0.236,1.565-0.919,1.565-1.944c0-4.988,0.006-9.975-0.01-14.961
		c-0.002-0.444,0.102-0.578,0.56-0.564c1.207,0.033,2.416,0.021,3.623,0.004c0.328-0.004,0.42,0.094,0.42,0.42
		c-0.008,6.522-0.009,13.043,0.002,19.564c0,0.349-0.094,0.466-0.451,0.457c-0.92-0.022-1.842-0.018-2.762-0.001
		c-0.307,0.005-0.433-0.078-0.469-0.406C125.527,35.391,125.394,34.713,125.266,33.916z"/>
	<path fill-rule="evenodd" clip-rule="evenodd" fill="#282828" d="M101.635,33.938c-0.315,0.446-0.548,0.814-0.818,1.151
		c-1.19,1.485-3.211,2.104-5.027,1.536c-1.51-0.473-2.111-1.668-2.399-3.094c-0.168-0.831-0.19-1.678-0.191-2.521
		c-0.01-4.797,0.003-9.594-0.017-14.391c-0.002-0.496,0.15-0.598,0.611-0.584c1.132,0.033,2.266,0.035,3.396,0
		c0.486-0.018,0.642,0.086,0.64,0.615c-0.024,4.682-0.017,9.363-0.012,14.045c0,0.651-0.013,1.307,0.167,1.943
		c0.199,0.709,0.723,1.026,1.444,0.884c1.021-0.202,1.627-0.932,1.627-1.959c0-4.99,0.008-9.979-0.011-14.967
		c-0.002-0.456,0.122-0.573,0.567-0.562c1.189,0.031,2.38,0.023,3.569,0.003c0.349-0.007,0.452,0.081,0.451,0.442
		c-0.012,6.523-0.011,13.047-0.003,19.57c0.001,0.314-0.07,0.438-0.41,0.43c-0.939-0.022-1.881-0.021-2.82,0
		c-0.301,0.006-0.386-0.104-0.421-0.385C101.89,35.411,101.764,34.732,101.635,33.938z"/>
	<path fill-rule="evenodd" clip-rule="evenodd" fill="#282828" d="M71.713,22.381c0.313-1.556,0.609-3.115,0.94-4.666
		c0.616-2.904,1.259-5.8,1.87-8.704c0.087-0.416,0.252-0.548,0.68-0.538c1.321,0.031,2.645,0.013,4.035,0.013
		c-0.418,1.495-0.822,2.946-1.23,4.396c-1.32,4.697-2.641,9.395-3.961,14.092c-0.084,0.297-0.121,0.596-0.119,0.905
		c0.006,2.687-0.005,5.372,0.012,8.058c0.002,0.385-0.066,0.53-0.49,0.519c-1.189-0.031-2.379-0.027-3.568-0.002
		c-0.385,0.01-0.471-0.111-0.469-0.479c0.018-2.207-0.027-4.413,0.023-6.619c0.027-1.243-0.166-2.424-0.501-3.614
		c-1.565-5.562-3.097-11.134-4.652-16.7c-0.12-0.428-0.087-0.584,0.422-0.568c1.188,0.039,2.379,0.03,3.567,0.002
		c0.372-0.01,0.494,0.135,0.563,0.459c0.927,4.344,1.915,8.676,2.681,13.054c0.022,0.128,0.061,0.254,0.092,0.38
		C71.643,22.372,71.678,22.376,71.713,22.381z"/>
	<path fill-rule="evenodd" clip-rule="evenodd" fill="#282828" d="M113.56,24.345c0,3.855-0.007,7.71,0.01,11.565
		c0.003,0.437-0.089,0.591-0.558,0.575c-1.13-0.037-2.264-0.038-3.395,0c-0.475,0.016-0.56-0.15-0.559-0.584
		c0.012-7.673,0.003-15.344,0.021-23.015c0.002-0.539-0.102-0.722-0.676-0.695c-1.148,0.051-2.301,0.004-3.451,0.021
		c-0.344,0.006-0.474-0.084-0.464-0.449c0.023-0.938,0.02-1.879,0.001-2.818c-0.006-0.338,0.071-0.471,0.443-0.469
		c4.258,0.013,8.516,0.011,12.773,0.003c0.314-0.001,0.438,0.071,0.43,0.411c-0.021,0.959-0.024,1.918,0.002,2.876
		c0.01,0.366-0.113,0.452-0.457,0.447c-1.189-0.019-2.379,0.017-3.567-0.019c-0.475-0.016-0.564,0.15-0.563,0.585
		C113.567,16.635,113.56,20.49,113.56,24.345z"/>
	<path fill-rule="evenodd" clip-rule="evenodd" fill="#FEFEFE" d="M31.589,15.518c4.025,2.33,7.995,4.628,12.066,6.984
		c-4.052,2.347-8.03,4.65-12.066,6.986C31.589,24.816,31.589,20.21,31.589,15.518z"/>
	<path fill-rule="evenodd" clip-rule="evenodd" fill="#282828" d="M144.807,21.899c-0.062-1.452-0.236-2.902-0.861-4.253
		c-0.473-1.024-1.231-1.705-2.348-1.924c-1.972-0.385-3.531,0.305-4.728,1.885c-0.118,0.157-0.229,0.318-0.42,0.584
		c0-0.324,0-0.51,0-0.695c0-3.146-0.01-6.291,0.011-9.436c0.002-0.478-0.069-0.67-0.61-0.642c-1.033,0.052-2.072,0.048-3.105,0.002
		c-0.562-0.025-0.732,0.101-0.73,0.704c0.023,9.207,0.017,18.412,0.017,27.618c0,0.115,0.012,0.231-0.002,0.345
		c-0.032,0.271,0.066,0.365,0.349,0.361c1.036-0.015,2.071-0.018,3.106,0.003c0.303,0.005,0.385-0.125,0.441-0.381
		c0.111-0.514,0.253-1.02,0.404-1.608c0.147,0.208,0.233,0.331,0.321,0.453c1.017,1.407,2.437,1.939,4.111,1.813
		c1.689-0.128,2.679-1.184,3.271-2.678c0.39-0.985,0.6-2.02,0.699-3.069C145.018,27.957,144.937,24.926,144.807,21.899z
		 M140.124,30.753c-0.056,0.651-0.168,1.293-0.471,1.882c-0.364,0.709-1.061,0.988-1.907,0.787
		c-0.805-0.189-1.296-0.785-1.296-1.572c0-1.766,0-3.53,0-5.296c0-1.783,0.001-3.567-0.001-5.353c0-0.959,0.504-1.643,1.26-2.125
		c0.796-0.506,1.723-0.15,2.066,0.738c0.352,0.908,0.412,1.874,0.432,2.829C140.261,25.347,140.353,28.051,140.124,30.753z"/>
	<path fill-rule="evenodd" clip-rule="evenodd" fill="#282828" d="M90.732,26.23c0-1.016,0.025-2.033-0.007-3.048
		c-0.04-1.248-0.198-2.485-0.577-3.679c-0.65-2.049-1.952-3.397-4.143-3.737c-1.184-0.184-2.369-0.167-3.541,0.118
		c-1.796,0.436-3,1.529-3.642,3.26c-0.349,0.94-0.544,1.913-0.645,2.905c-0.229,2.277-0.11,4.561-0.112,6.841
		c0,1.113,0.127,2.22,0.35,3.311c0.468,2.287,1.625,3.946,4.064,4.424c0.91,0.179,1.83,0.21,2.748,0.123
		c2.864-0.269,4.347-1.557,5.063-4.345C90.815,30.373,90.762,28.301,90.732,26.23z M86.011,31.708
		c-0.029,0.383-0.139,0.751-0.305,1.101c-0.273,0.577-0.718,0.886-1.365,0.857c-0.627-0.03-1.026-0.371-1.242-0.946
		c-0.198-0.524-0.271-1.073-0.314-1.63c-0.121-1.608-0.061-3.22-0.081-4.971c0.05-1.736-0.106-3.619,0.19-5.488
		c0.054-0.342,0.152-0.672,0.3-0.984c0.241-0.508,0.624-0.817,1.208-0.823c0.602-0.007,1.01,0.291,1.275,0.815
		c0.265,0.524,0.387,1.095,0.401,1.664C86.164,24.771,86.271,28.242,86.011,31.708z"/>
	<path fill-rule="evenodd" clip-rule="evenodd" fill="#282828" d="M152.008,27.767c2.226,0.027,4.452,0.013,6.678,0.013
		c0.228,0,0.456,0.055,0.449-0.322c-0.042-2.357,0.103-4.721-0.247-7.068c-0.412-2.771-1.697-4.211-4.182-4.632
		c-0.47-0.079-0.954-0.101-1.433-0.108c-3.31-0.057-5.199,1.438-5.918,4.672c-0.395,1.772-0.424,3.576-0.41,5.379
		c0,1.036-0.028,2.073,0.006,3.109c0.051,1.573,0.225,3.13,0.759,4.632c0.617,1.731,1.792,2.814,3.595,3.202
		c0.795,0.172,1.602,0.194,2.406,0.141c3.75-0.25,5.432-2.434,5.3-5.977c-0.008-0.221-0.044-0.352-0.313-0.364
		c-1.129-0.057-2.26-0.126-3.388-0.213c-0.324-0.024-0.326,0.146-0.334,0.379c-0.022,0.729-0.076,1.456-0.342,2.146
		c-0.231,0.599-0.675,0.904-1.319,0.93c-0.979,0.039-1.481-0.332-1.661-1.36c-0.229-1.307-0.151-2.639-0.238-3.957
		C151.384,27.887,151.528,27.761,152.008,27.767z M151.421,24.752c0.02-1.55-0.031-3.103,0.227-4.637
		c0.109-0.647,0.38-1.195,1.138-1.339c0.853-0.161,1.483,0.181,1.719,1.013c0.285,1.008,0.226,2.047,0.275,3.078
		c0,0.593-0.011,1.187,0.005,1.779c0.007,0.272-0.035,0.415-0.365,0.406c-0.879-0.022-1.759-0.01-2.64-0.006
		C151.568,25.049,151.417,25.038,151.421,24.752z"/>
</g>
</svg>
